<svg viewBox="0 0 25 25" xmlns="http://www.w3.org/2000/svg">
<path d="M24.5893 22.6177L19.8686 17.9109C21.3917 15.9705 22.2181 13.5743 22.2151 11.1075C22.2151 8.91067 21.5636 6.76314 20.3431 4.93652C19.1226 3.10989 17.3878 1.68621 15.3582 0.845512C13.3286 0.00480887 11.0952 -0.215157 8.94056 0.213429C6.78591 0.642016 4.80674 1.69991 3.25332 3.25332C1.69991 4.80674 0.642016 6.78591 0.213429 8.94056C-0.215157 11.0952 0.00480887 13.3286 0.845512 15.3582C1.68621 17.3878 3.10989 19.1226 4.93652 20.3431C6.76314 21.5636 8.91067 22.2151 11.1075 22.2151C13.5743 22.2181 15.9705 21.3917 17.9109 19.8686L22.6177 24.5893C22.7468 24.7194 22.9003 24.8227 23.0695 24.8932C23.2387 24.9637 23.4202 25 23.6035 25C23.7868 25 23.9683 24.9637 24.1375 24.8932C24.3067 24.8227 24.4602 24.7194 24.5893 24.5893C24.7194 24.4602 24.8227 24.3067 24.8932 24.1375C24.9637 23.9683 25 23.7868 25 23.6035C25 23.4202 24.9637 23.2387 24.8932 23.0695C24.8227 22.9003 24.7194 22.7468 24.5893 22.6177V22.6177ZM2.77688 11.1075C2.77688 9.45989 3.26547 7.84924 4.18085 6.47927C5.09623 5.1093 6.3973 4.04154 7.91953 3.41102C9.44176 2.78049 11.1168 2.61551 12.7328 2.93695C14.3487 3.25839 15.8331 4.05181 16.9982 5.21687C18.1633 6.38194 18.9567 7.86632 19.2781 9.4823C19.5995 11.0983 19.4346 12.7733 18.804 14.2955C18.1735 15.8178 17.1058 17.1188 15.7358 18.0342C14.3658 18.9496 12.7552 19.4382 11.1075 19.4382C8.89811 19.4382 6.77917 18.5605 5.21687 16.9982C3.65457 15.4359 2.77688 13.317 2.77688 11.1075Z"/>
</svg>
