<svg xmlns="http://www.w3.org/2000/svg" width="192" height="192" fill="#000000" viewBox="0 0 256 256"><rect width="256" height="256" fill="none"></rect><path d="M149.7,195.9l-14.8,24.7a8.1,8.1,0,0,1-13.8,0l-14.8-24.7a7.9,7.9,0,0,0-6.8-3.9H40a8,8,0,0,1-8-8V56a8,8,0,0,1,8-8H216a8,8,0,0,1,8,8V184a8,8,0,0,1-8,8H156.5A7.9,7.9,0,0,0,149.7,195.9Z" fill="none" stroke="#000000" stroke-linecap="round" stroke-linejoin="round" stroke-width="16"></path><circle cx="128" cy="120" r="12"></circle><circle cx="80" cy="120" r="12"></circle><circle cx="176" cy="120" r="12"></circle></svg>